trial_2_IK.mot
nRows=4
nColumns=42

name trial_2_IK.mot
datacolumns 42
datarows 4
range 4.1900000000 4.2200000000
endheader
time	pelvis_tilt	pelvis_list	pelvis_rotation	pelvis_tx	pelvis_ty	pelvis_tz	hip_flexion_r	hip_adduction_r	hip_rotation_r	knee_angle_r	knee_vv_r	knee_rot_r	ankle_angle_r	subtalar_angle_r	mtp_angle_r	hip_flexion_l	hip_adduction_l	hip_rotation_l	knee_angle_l	knee_vv_l	knee_rot_l	ankle_angle_l	subtalar_angle_l	mtp_angle_l	lumbar_extension	lumbar_bending	lumbar_rotation	arm_flex_r	arm_add_r	arm_rot_r	elbow_flex_r	pro_sup_r	wrist_flex_r	wrist_dev_r	arm_flex_l	arm_add_l	arm_rot_l	elbow_flex_l	pro_sup_l	wrist_flex_l	wrist_dev_l
        4.1900000000	        8.8484620900	        1.5134120800	        0.3770300600	        0.0904496200	        0.8978823900	       -0.0163701100	       13.0863932400	       -1.3141622000	        1.3968792400	       -6.9564026400	        0.0000000000	        0.0000000000	        2.7151792800	        0.0000000000	        0.0000000000	      -21.7001502600	        5.2843636700	        3.7728831700	       -5.9419784900	        0.0000000000	        0.0000000000	       11.4662565700	        0.0000000000	        0.0000000000	      -24.7425665500	       -0.8764186900	       -4.2149269400	       -6.1736518700	       -9.4452595100	       37.4150802800	        2.5810163400	       86.5166270600	        0.0000000000	        0.0000000000	       17.5160831100	      -21.1827944000	       14.5957967000	       37.3811998300	       85.9436692700	        0.0000000000	        0.0000000000	
        4.2000000000	        9.1587574400	        1.4898110100	        0.3788267500	        0.0922119100	        0.8972459100	       -0.0152985400	       12.9106375400	       -1.1439114800	        1.0590191100	       -8.3898942400	        0.0000000000	        0.0000000000	        2.3060804900	        0.0000000000	        0.0000000000	      -22.6762639000	        5.1379465400	        3.7200238700	       -6.0588054000	        0.0000000000	        0.0000000000	       11.1482513600	        0.0000000000	        0.0000000000	      -24.9246809200	       -0.8493239400	       -4.0486364700	       -5.7439502500	       -9.6040871000	       37.6674571800	        2.7088763700	       86.5166270600	        0.0000000000	        0.0000000000	       17.1815022500	      -20.7886351900	       15.2063338900	       36.1311868400	       85.9436692700	        0.0000000000	        0.0000000000	
        4.2100000000	        9.4880937600	        1.4054368900	        0.3336877300	        0.0940100400	        0.8967943400	       -0.0141032800	       12.7389807500	       -0.9037663500	        0.8262069800	       -9.8239910200	        0.0000000000	        0.0000000000	        1.7009007800	        0.0000000000	        0.0000000000	      -23.6003437600	        4.9538060000	        3.5645313300	       -6.3050153800	        0.0000000000	        0.0000000000	       10.7442546600	        0.0000000000	        0.0000000000	      -25.1136992100	       -0.7713543600	       -3.8206797100	       -5.2558263300	       -9.7907282500	       37.9416366900	        2.8650879300	       86.5166270600	        0.0000000000	        0.0000000000	       16.8433528600	      -20.3496767000	       15.9009316600	       34.6896427600	       85.9436692700	        0.0000000000	        0.0000000000	
        4.2200000000	        9.8366738400	        1.2428942000	        0.2558936900	        0.0957896000	        0.8966916700	       -0.0127897400	       12.5618025100	       -0.5919061100	        0.7163116100	      -11.1652715200	        0.0000000000	        0.0000000000	        0.9416698600	        0.0000000000	        0.0000000000	      -24.4416103800	        4.7174312100	        3.3187508900	       -6.7177640300	        0.0000000000	        0.0000000000	       10.2587577700	        0.0000000000	        0.0000000000	      -25.3201662300	       -0.6279582700	       -3.5432243700	       -4.6976231100	      -10.0019935000	       38.2383629600	        3.0501110100	       86.5166270600	        0.0000000000	        0.0000000000	       16.5035306800	      -19.8646599300	       16.6891288800	       33.0624473600	       85.9436692700	        0.0000000000	        0.0000000000	
